<svg width="24" height="24" viewBox="0 0 24 24" fill="none" xmlns="http://www.w3.org/2000/svg">
<g id="heroicons-mini/check-circle">
<path id="Subtract" fill-rule="evenodd" clip-rule="evenodd" d="M12 21.6C17.3019 21.6 21.6 17.3019 21.6 12C21.6 6.69806 17.3019 2.39999 12 2.39999C6.69807 2.39999 2.4 6.69806 2.4 12C2.4 17.3019 6.69807 21.6 12 21.6ZM16.6279 9.82935C16.9202 9.42736 16.8313 8.86449 16.4294 8.57213C16.0274 8.27978 15.4645 8.36865 15.1721 8.77064L10.9916 14.5188L8.7364 12.2636C8.38493 11.9121 7.81508 11.9121 7.46361 12.2636C7.11213 12.6151 7.11213 13.1849 7.46361 13.5364L10.4636 16.5364C10.6497 16.7225 10.908 16.8178 11.1704 16.7972C11.4328 16.7766 11.673 16.6422 11.8279 16.4293L16.6279 9.82935Z" fill="#9EB0BE"/>
</g>
</svg>
