<svg width="24" height="24" viewBox="0 0 24 24" fill="none" xmlns="http://www.w3.org/2000/svg">
<g id="heroicons-mini/flag">
<path id="Union" d="M4.20002 3.29999C4.20002 2.80294 3.79708 2.39999 3.30002 2.39999C2.80297 2.39999 2.40002 2.80294 2.40002 3.29999V20.7C2.40002 21.1971 2.80297 21.6 3.30002 21.6C3.79708 21.6 4.20002 21.1971 4.20002 20.7V15.4302L6.18893 15.0115C7.92552 14.6459 9.73501 14.8883 11.3141 15.6982C13.5267 16.8328 16.095 17.0586 18.4716 16.3273L20.9647 15.5602C21.3423 15.444 21.6 15.0951 21.6 14.7V4.49999C21.6 4.22877 21.4777 3.972 21.2671 3.80111C21.0565 3.63022 20.78 3.56342 20.5146 3.6193L17.6589 4.2205C15.9782 4.57434 14.2303 4.42276 12.6355 3.78486L12.033 3.54386C10.1083 2.77398 7.99881 2.59104 5.97032 3.0181L4.20002 3.39079V3.29999Z" fill="#9EB0BE"/>
</g>
</svg>
