<svg width="24" height="24" viewBox="0 0 24 24" fill="none" xmlns="http://www.w3.org/2000/svg">
<g id="heroicons-mini/inbox">
<path id="Union" fill-rule="evenodd" clip-rule="evenodd" d="M1.20001 13.525C1.20001 13.2284 1.23998 12.9333 1.31884 12.6474L3.14641 6.02244C3.5412 4.59133 4.84302 3.60001 6.32759 3.60001H17.6724C19.157 3.60001 20.4588 4.59133 20.8536 6.02244L22.6812 12.6474C22.76 12.9333 22.8 13.2284 22.8 13.525V18C22.8 19.3255 21.7255 20.4 20.4 20.4H3.60001C2.27453 20.4 1.20001 19.3255 1.20001 18V13.525ZM4.8816 6.50111C5.06105 5.85061 5.65279 5.40001 6.32759 5.40001H17.6724C18.3472 5.40001 18.939 5.85061 19.1184 6.50111L20.946 13.1261C20.9528 13.1506 20.9589 13.1752 20.9644 13.2H16.8C16.3765 13.2 15.9844 13.4232 15.7682 13.7874L15.0407 15.0127C14.8245 15.3768 14.4323 15.6 14.0088 15.6H9.88329C9.42877 15.6 9.01325 15.3432 8.80998 14.9367L8.27332 13.8633C8.07005 13.4568 7.65454 13.2 7.20001 13.2H3.03564C3.04113 13.1752 3.04726 13.1506 3.05402 13.1261L4.8816 6.50111Z" fill="#9EB0BE"/>
</g>
</svg>
