<svg width="24" height="24" viewBox="0 0 24 24" fill="none" xmlns="http://www.w3.org/2000/svg">
<g id="heroicons-mini/newspaper">
<g id="Union">
<path fill-rule="evenodd" clip-rule="evenodd" d="M2.39999 4.19999C2.39999 3.20588 3.20588 2.39999 4.19999 2.39999H15C15.9941 2.39999 16.8 3.20588 16.8 4.19999V18.3C16.8 20.1225 18.2775 21.6 20.1 21.6H5.69999C3.87745 21.6 2.39999 20.1225 2.39999 18.3V4.19999ZM6.89999 12.6C6.40294 12.6 5.99999 13.0029 5.99999 13.5C5.99999 13.9971 6.40294 14.4 6.89999 14.4H12.3C12.7971 14.4 13.2 13.9971 13.2 13.5C13.2 13.0029 12.7971 12.6 12.3 12.6H6.89999ZM6.89999 16.2C6.40294 16.2 5.99999 16.6029 5.99999 17.1C5.99999 17.5971 6.40294 18 6.89999 18H12.3C12.7971 18 13.2 17.5971 13.2 17.1C13.2 16.6029 12.7971 16.2 12.3 16.2H6.89999ZM5.99999 6.89999C5.99999 6.40294 6.40294 5.99999 6.89999 5.99999H12.3C12.7971 5.99999 13.2 6.40294 13.2 6.89999V9.89999C13.2 10.3971 12.7971 10.8 12.3 10.8H6.89999C6.40294 10.8 5.99999 10.3971 5.99999 9.89999V6.89999Z" fill="#9EB0BE"/>
<path d="M19.8 7.79999H18.6V18.3C18.6 19.1284 19.2716 19.8 20.1 19.8C20.9284 19.8 21.6 19.1284 21.6 18.3V9.59999C21.6 8.60588 20.7941 7.79999 19.8 7.79999Z" fill="#9EB0BE"/>
</g>
</g>
</svg>
