<svg width="24" height="24" viewBox="0 0 24 24" fill="none" xmlns="http://www.w3.org/2000/svg">
<g id="heroicons-mini/rocket-launch">
<g id="Vector">
<path fill-rule="evenodd" clip-rule="evenodd" d="M5.52718 15.563C5.83136 15.9561 5.75927 16.5214 5.36616 16.8255C4.65511 17.3757 4.20001 18.2345 4.20001 19.2C4.20001 19.3883 4.21726 19.5721 4.25013 19.7499C4.42797 19.7828 4.61169 19.8 4.80001 19.8C5.7655 19.8 6.62429 19.3449 7.17449 18.6339C7.47868 18.2408 8.04395 18.1687 8.43706 18.4729C8.83017 18.777 8.90226 19.3423 8.59807 19.7354C7.72165 20.868 6.3461 21.6 4.80001 21.6C4.24805 21.6 3.71602 21.5065 3.22009 21.3337C2.96067 21.2433 2.75675 21.0393 2.66636 20.7799C2.49354 20.284 2.40001 19.752 2.40001 19.2C2.40001 17.6539 3.13198 16.2784 4.26461 15.402C4.65772 15.0978 5.22299 15.1699 5.52718 15.563Z" fill="#9EB0BE"/>
<path fill-rule="evenodd" clip-rule="evenodd" d="M6.90284 14.4C7.68858 15.4052 8.59486 16.3114 9.60001 17.0972V21.9C9.60001 22.3971 10.003 22.8 10.5 22.8C13.8137 22.8 16.5 20.1137 16.5 16.8C16.5 16.2117 16.4151 15.6421 16.2565 15.1034C20.216 12.2756 22.8 7.63982 22.8 2.40001C22.8 2.29482 22.799 2.18985 22.7969 2.08512C22.7873 1.60203 22.398 1.21271 21.9149 1.20313C21.8102 1.20106 21.7052 1.20001 21.6 1.20001C16.3602 1.20001 11.7244 3.78398 8.89666 7.74351C8.35796 7.58495 7.78834 7.50001 7.20001 7.50001C3.8863 7.50001 1.20001 10.1863 1.20001 13.5C1.20001 13.9971 1.60296 14.4 2.10001 14.4H6.90284ZM15.6 10.8C16.9255 10.8 18 9.7255 18 8.40001C18 7.07453 16.9255 6.00001 15.6 6.00001C14.2745 6.00001 13.2 7.07453 13.2 8.40001C13.2 9.7255 14.2745 10.8 15.6 10.8Z" fill="#9EB0BE"/>
</g>
</g>
</svg>
